<?xml version="1.0" encoding="UTF-8"?>
<svg version="1.1" viewBox="0 0 2048 1628" width="815" height="648" xmlns="http://www.w3.org/2000/svg">
<path transform="translate(908,428)" d="m0 0h41l16 2 18 4 23 7 19 8 23 12 15 10 13 9 13 11 11 9 15 14 11 11 9 11 9 10 11 15 10 15 12 22 7 16 8 24 5 23 1 7 1 20v16l-1 19-5 26-6 21-10 29-12 26-14 25-12 18-13 18-11 14-11 13-18 20-12 12-10 7-12 5-11 2-12-1-8-2-16-8-11-9-8-9-8-13-3-9-1-5v-16l3-13 6-11 12-14 16-17 12-14 12-16 14-21 12-23 6-15 6-20 3-15v-28l-4-18-9-21-9-14-11-14-25-25-13-10-14-9-15-8-15-5-16-3h-23l-13 2-16 4-16 6-16 8-14 8-16 11-10 8-14 12-15 14-10 10-7 8-15 15-7 8-21 21-7 8-8 8-7 8-7 7-7 8-13 13-7 8-12 12-7 8-11 11-7 8-17 17-1 2h-2l-2 4-19 19-7 8-11 11-7 8-7 7-7 8-11 11-7 8-15 15-7 8-16 17-18 18-7 8-8 8-7 8-10 10-7 8-15 15-7 8-9 9-18 22-10 15-9 15-8 16-6 15-6 21-3 18v19l4 19 7 19 9 16 8 11 12 14 14 14 11 9 10 7 18 11 16 7 21 5h28l20-4 15-5 22-10 20-12 17-13 11-9 14-12 23-23 5-6-1-4-6-7-8-7-8-8-8-7-10-10-8-7-9-9-8-7-13-13-8-7-11-11-7-10-6-14-1-7v-17l2-10 6-12 8-10 8-8 11-7 7-3 13-2 17 1 14 5 13 9 15 14 12 11 24 24 8 7 14 14 8 7 10 10 8 7 15 15 8 7 17 16 13 13 8 14 3 10 1 14-2 12-5 12-7 10-12 13-28 30-8 8-7 8-25 25-8 7-10 9-11 9-16 12-21 14-15 9-27 14-19 8-21 7-29 7-26 3h-28l-28-3-18-5-9-2-20-8-17-8-18-10-18-12-16-12-15-13-17-16-15-16-11-13-13-18-11-17-11-21-8-20-6-20-4-20-2-15v-33l3-24 5-23 7-25 10-25 15-30 12-20 16-23 10-13 8-10 12-14 28-30 11-11 7-8 12-12 7-8 11-11 7-8 13-13 7-8 13-13 7-8 14-14 7-8 15-15 7-8 12-12 7-8 7-7 7-8 12-12 7-8 15-15 7-8 15-15 7-8 12-12 7-8 15-15 7-8 12-12 7-8 7-7 1-2h2l2-4 17-17 7-8 29-29 11-9 10-9 17-13 18-13 21-13 10-6 19-9 28-11 29-8 21-4z" fill="#FEFEFE"/>
<path transform="translate(1414,223)" d="m0 0h15l28 2 36 9 25 10 26 14 19 12 15 12 11 9 15 14 17 17 7 8 12 14 13 19 10 17 12 25 11 31 5 26 1 14v29l-3 24-5 24-12 36-6 15-8 16-11 20-15 23-13 18-9 11-9 10-7 8-24 26-11 12-11 11-7 8-28 30-30 30-7 8-10 10-7 8-8 8-7 8-11 11-7 8-16 17-12 12-7 8-18 18-7 8-9 9-7 8-8 8-1 2h-2l-2 4-15 15-7 8-10 10-7 8-13 13-7 8-13 13-7 8-16 15-8 8-11 9-13 11-16 12-18 11-15 9-25 13-25 10-18 6-20 5-26 4-13 1h-13l-19-2-24-4-19-5-26-10-16-8-18-11-16-11-16-13-13-11-29-29-20-25-8-12-8-13-8-15-12-28-5-17-4-21-2-17v-27l4-28 6-28 8-26 8-20 14-28 11-18 10-15 11-15 11-14 12-14 11-12 7-8 11-12 12-11 16-8 10-2h14l12 3 14 7 12 11 12 19 3 9 1 5v18l-4 13-6 10-8 10-22 24-10 11-11 14-10 13-10 15-15 28-6 14-6 28-2 17 1 16 5 21 7 16 8 14 8 11 9 10 11 12 8 7 14 12 18 11 17 8 13 4 17 3h18l14-2 19-5 16-6 20-10 16-10 12-9 13-11 20-18 27-27 7-8 8-8 7-8 10-10 7-8 7-7h2v-2h2l1-3h2v-2l18-18 7-8 14-15 12-13 47-47 9-11 16-17 7-7 7-8 9-9 7-8 25-25 7-8 15-15 7-8 43-46 13-14 9-11 13-16 13-18 10-18 7-16 5-15 5-23 1-8v-22l-4-18-5-15-10-18-12-17-12-14-7-7-14-11-13-10-21-12-17-6-9-2-22-2-28 3-20 6-25 12-16 10-16 12-13 11-8 7-15 14-31 31-10 7-10 5-13 2h-12l-11-2-11-6-10-8-11-12-7-12-3-12v-15l2-14 8-16 11-13 16-16 8-7 17-16 11-10 14-11 17-13 21-14 14-8 19-9 15-7 19-7 19-6 21-5 12-2z" fill="#4DC6F8"/>
</svg>
